# xmcd CD database file
#
# Track frame offsets:
#	150
#	23148
#	46365
#	61221
#	86899
#	110977
#	125010
#	148914
#	163764
#	183518
#	198813
#	220168
#
# Disc length: 3132 seconds
#
# Revision: 0
# Processed by: cddbd v1.5PL3 Copyright (c) Steve Scherf et al.
# Submitted via: CDex 1.51
#
DISCID=b70c3a0c
DTITLE=Voodoo DeVille - Motorvator
DYEAR=2002
DGENRE=Blues
TTITLE0=I Can Tell
TTITLE1=Help Me
TTITLE2=Credit Card Shuffle
TTITLE3=Early In The Morning
TTITLE4=Caldonia
TTITLE5=Thank You Baby
TTITLE6=Bad Case Of Love
TTITLE7=Jambalaya
TTITLE8=Too Young To Die
TTITLE9=Mess Around
TTITLE10=Flip, Flop And Fly
TTITLE11=Off The Wall
EXTD=YEAR: 2002
EXTT0=
EXTT1=
EXTT2=
EXTT3=
EXTT4=
EXTT5=
EXTT6=
EXTT7=
EXTT8=
EXTT9=
EXTT10=
EXTT11=
PLAYORDER=
